<svg width="82" height="50" viewBox="0 0 82 50" fill="none" xmlns="http://www.w3.org/2000/svg">
    <path
        fill="#FFFFFF"
        d="m0,0h23.52c2.39,0,4.56.2,6.53.62s3.64,1.12,5.04,2.07c1.4.96,2.48,2.23,3.24,3.81s1.13,3.53,1.13,5.87c0,2.48-.59,4.59-1.75,6.29s-2.84,3.09-5.04,4.14c3.04.9,5.34,2.43,6.88,4.66,1.52,2.22,2.29,4.9,2.29,8.02,0,2.53-.49,4.71-1.48,6.56-1,1.83-2.32,3.35-3.95,4.5-1.65,1.17-3.51,2.03-5.65,2.59-2.11.56-4.3.83-6.56.83H0V0Zm11.01,20.23h11.11c.96,0,1.85-.12,2.68-.35s1.55-.59,2.13-1.06c.59-.49,1.06-1.1,1.4-1.85s.51-1.65.51-2.69c0-1.17-.2-2.16-.62-2.9-.42-.75-.97-1.33-1.68-1.77-.7-.42-1.51-.71-2.42-.85s-1.87-.22-2.84-.22h-10.28v11.69h.04-.03Zm0,21.19h11.75c1.1,0,2.13-.1,3.1-.3s1.85-.55,2.58-1.03c.72-.49,1.32-1.16,1.77-2.01.42-.85.65-1.91.65-3.2s-.2-2.38-.59-3.29-.93-1.65-1.62-2.22-1.52-1-2.49-1.23c-.97-.26-2.03-.39-3.19-.39h-11.95v13.7h0v-.03ZM43.5,0h37.41v9.24h-26.39v10.69h24.19v8.55h-24.19v12.28h26.94v9.24h-37.95V.01h-.01Z" />
</svg>