<svg width="222" height="46" viewBox="0 0 222 46" fill="none" xmlns="http://www.w3.org/2000/svg">
    <path
        fill="#2A7692"
        d="m0,1.64h16.24c1.65,0,3.15.14,4.51.43,1.36.29,2.51.77,3.48,1.43.97.66,1.71,1.54,2.24,2.63.53,1.09.78,2.44.78,4.05,0,1.71-.41,3.17-1.21,4.34s-1.96,2.13-3.48,2.86c2.1.62,3.69,1.68,4.75,3.22,1.05,1.53,1.58,3.38,1.58,5.54,0,1.75-.34,3.25-1.02,4.53-.69,1.26-1.6,2.31-2.73,3.11-1.14.81-2.42,1.4-3.9,1.79-1.46.39-2.97.57-4.53.57H0V1.64Zm7.6,13.97h7.67c.66,0,1.28-.08,1.85-.24s1.07-.41,1.47-.73c.41-.34.73-.76.97-1.28.24-.52.35-1.14.35-1.86,0-.81-.14-1.49-.43-2-.29-.52-.67-.92-1.16-1.22-.48-.29-1.04-.49-1.67-.59s-1.29-.15-1.96-.15h-7.1v8.07h.03Zm0,14.63h8.11c.76,0,1.47-.07,2.14-.21s1.28-.38,1.78-.71c.5-.34.91-.8,1.22-1.39.29-.59.45-1.32.45-2.21s-.14-1.64-.41-2.27-.64-1.14-1.12-1.53-1.05-.69-1.72-.85c-.67-.18-1.4-.27-2.2-.27H7.6v9.46h0ZM28.91,1.64h25.83v6.38h-18.22v7.38h16.7v5.9h-16.7v8.48h18.6v6.38h-26.2s0-34.51,0-34.51Zm48.44,10.76c-.13-.85-.41-1.64-.85-2.38-.43-.74-.99-1.39-1.68-1.92-.67-.55-1.44-.97-2.3-1.28s-1.75-.46-2.7-.46c-1.7,0-3.15.34-4.34,1.01-1.19.67-2.17,1.56-2.91,2.65-.74,1.11-1.29,2.37-1.63,3.78-.34,1.43-.5,2.89-.5,4.4s.17,2.86.5,4.23c.34,1.37.88,2.61,1.63,3.7.74,1.08,1.72,1.96,2.91,2.62,1.19.66,2.65.99,4.34.99,1.15,0,2.19-.18,3.1-.56.91-.38,1.7-.91,2.34-1.6s1.16-1.5,1.57-2.44c.41-.94.67-1.98.81-3.11h7.36c-.18,2.16-.69,4.11-1.51,5.84-.81,1.74-1.89,3.22-3.21,4.44-1.32,1.23-2.87,2.17-4.64,2.83-1.77.66-3.71.99-5.82.99-2.68,0-5.06-.46-7.16-1.4-2.1-.94-3.88-2.21-5.34-3.84s-2.56-3.52-3.32-5.7c-.76-2.19-1.15-4.51-1.15-6.99s.38-4.96,1.15-7.17c.76-2.21,1.88-4.15,3.32-5.79,1.46-1.64,3.24-2.93,5.34-3.85,2.1-.94,4.48-1.4,7.16-1.4,1.89,0,3.69.27,5.4.81,1.71.55,3.22,1.35,4.55,2.4s2.42,2.35,3.29,3.9c.87,1.54,1.4,3.31,1.63,5.31h-7.34.01Zm7.38,10.58c0-2,.31-3.81.92-5.42.62-1.63,1.49-3,2.59-4.15,1.12-1.15,2.47-2.03,4.06-2.66,1.58-.63,3.36-.94,5.34-.94s3.76.31,5.34.94c1.6.63,2.96,1.51,4.08,2.66s1.99,2.54,2.61,4.15c.62,1.63.92,3.43.92,5.42s-.31,3.78-.92,5.4-1.49,3-2.61,4.15c-1.12,1.15-2.48,2.03-4.08,2.66-1.6.63-3.38.94-5.34.94s-3.74-.31-5.34-.94c-1.58-.63-2.94-1.51-4.06-2.66s-1.98-2.52-2.59-4.15c-.62-1.61-.92-3.41-.92-5.4Zm6.87,0c0,.99.1,1.96.29,2.91s.53,1.81.99,2.56c.46.76,1.08,1.36,1.85,1.82s1.74.69,2.9.69,2.13-.22,2.91-.69c.78-.46,1.4-1.07,1.88-1.82s.81-1.61,1.01-2.56.29-1.92.29-2.91-.1-1.99-.29-2.96c-.2-.95-.53-1.82-1.01-2.58s-1.09-1.36-1.88-1.82-1.75-.69-2.91-.69-2.13.22-2.9.69-1.39,1.07-1.85,1.82c-.46.76-.8,1.61-.99,2.58-.2.95-.29,1.95-.29,2.96Zm18.65-11.84h6.52v3.49h.14c.43-.71.95-1.32,1.53-1.84.57-.52,1.19-.95,1.86-1.29s1.36-.59,2.09-.77c.73-.17,1.44-.27,2.17-.27,1.82,0,3.32.25,4.51.74,1.18.49,2.12,1.19,2.8,2.09.69.9,1.16,1.98,1.43,3.25.27,1.26.41,2.68.41,4.22v15.36h-6.87v-14.11c0-2.05-.34-3.57-1.01-4.6-.67-1.02-1.79-1.53-3.39-1.53-.92,0-1.74.14-2.41.41s-1.23.69-1.67,1.28c-.43.59-.76,1.32-.95,2.21-.21.9-.31,1.98-.31,3.25v13.1h-6.84V11.15h-.01Zm40.85,8.11c-.22-1.42-.76-2.48-1.63-3.21-.87-.73-2.02-1.08-3.45-1.08-1.11,0-2.02.25-2.76.76s-1.33,1.15-1.79,1.92c-.46.78-.78,1.65-.98,2.62s-.29,1.91-.29,2.82.1,1.81.28,2.73c.18.92.5,1.78.94,2.54.43.76,1.02,1.39,1.75,1.88s1.63.73,2.7.73c.8,0,1.51-.13,2.13-.36.62-.24,1.16-.59,1.63-1.04s.84-.98,1.12-1.61c.28-.62.48-1.32.59-2.09h6.61c-.22,1.65-.66,3.12-1.32,4.4-.66,1.29-1.51,2.35-2.55,3.22-1.04.87-2.24,1.53-3.63,1.98-1.37.45-2.89.67-4.54.67-1.89,0-3.6-.32-5.14-.95s-2.87-1.53-3.98-2.65c-1.11-1.14-1.96-2.48-2.58-4.05-.6-1.57-.91-3.28-.91-5.16s.28-3.76.85-5.41,1.39-3.08,2.48-4.29,2.42-2.14,3.99-2.82c1.58-.67,3.39-1.01,5.42-1.01,1.49,0,2.9.2,4.27.57,1.37.39,2.59.97,3.66,1.75s1.95,1.78,2.63,2.96c.69,1.19,1.08,2.58,1.19,4.16h-6.73.01Zm12.91,5.37c.1,2.19.66,3.8,1.71,4.82s2.52,1.53,4.43,1.53c.69,0,1.35-.1,1.95-.29s1.15-.45,1.63-.76c.48-.31.88-.66,1.21-1.04s.53-.77.64-1.16h6.04c-.49,1.49-1.11,2.75-1.85,3.81-.74,1.07-1.61,1.93-2.61,2.62-.99.69-2.09,1.19-3.31,1.51-1.21.32-2.52.49-3.94.49-1.96,0-3.74-.32-5.33-.97-1.58-.64-2.93-1.56-4.02-2.72-1.11-1.16-1.95-2.55-2.54-4.15-.59-1.61-.88-3.38-.88-5.31s.31-3.62.94-5.23c.62-1.61,1.49-3.01,2.61-4.19s2.47-2.1,4.04-2.77c1.57-.67,3.31-1.01,5.2-1.01,1.42,0,2.72.18,3.9.56,1.18.38,2.23.9,3.15,1.57s1.72,1.47,2.4,2.4c.67.92,1.23,1.95,1.65,3.04.42,1.11.73,2.27.9,3.49.17,1.23.22,2.48.14,3.76h-18.05Zm11.17-4.34c-.15-.87-.38-1.63-.64-2.3-.28-.67-.63-1.22-1.07-1.67-.43-.43-.95-.77-1.57-1.01-.62-.22-1.33-.34-2.17-.34-1.08,0-1.99.18-2.72.56-.73.36-1.3.83-1.74,1.37s-.74,1.12-.94,1.74-.31,1.16-.32,1.65h11.17Zm6.36-10.24h6.52v3.18h.1c.83-1.33,1.89-2.31,3.18-2.93,1.29-.62,2.7-.92,4.29-.92,1.95,0,3.64.36,5.06,1.09,1.43.73,2.61,1.71,3.55,2.96.94,1.23,1.63,2.66,2.07,4.29.45,1.63.67,3.32.67,5.1,0,1.67-.22,3.28-.69,4.82-.46,1.56-1.15,2.93-2.06,4.12-.92,1.19-2.06,2.16-3.43,2.87-1.37.73-2.97,1.08-4.79,1.08-.76,0-1.49-.08-2.2-.25s-1.4-.41-2.05-.71-1.25-.71-1.79-1.18c-.55-.48-1.04-1.01-1.44-1.63h-.11v11.9h-6.84V10.05h-.03Zm12.6,20.52c1.14,0,2.07-.22,2.83-.67.76-.45,1.36-1.04,1.84-1.77.46-.73.8-1.57.99-2.52.2-.95.29-1.93.29-2.96s-.11-1.98-.32-2.94-.56-1.84-1.02-2.58c-.48-.76-1.09-1.37-1.85-1.84-.76-.48-1.7-.71-2.8-.71s-2.06.24-2.82.7-1.37,1.08-1.84,1.84c-.46.76-.8,1.61-.99,2.58s-.29,1.96-.29,2.96.1,2,.31,2.96.55,1.79,1.01,2.52c.48.73,1.09,1.32,1.85,1.77.76.45,1.71.67,2.82.67h0Zm21.93-19.69h5.03v4.6h-5.03v12.37c0,.59.04,1.07.13,1.43s.24.66.46.88.52.38.88.46c.36.08.84.13,1.43.13.36,0,.71,0,1.06-.04.35-.03.7-.07,1.06-.15v5.35c-.59.1-1.22.15-1.92.18s-1.4.04-2.09.04c-1.05,0-2.06-.07-3.01-.22s-1.79-.43-2.51-.87c-.73-.43-1.3-1.04-1.72-1.82s-.63-1.79-.63-3.03v-14.73h-4.15v-4.6h4.15V3.38h6.87v7.48h-.01Z" />
</svg>